<svg xmlns="http://www.w3.org/2000/svg" viewBox="0 0 109.168 110.033">
  <path d="M88.038,6.644c0-8.859-66.908-8.859-66.908,0,0,14.071-22.309,16.879-21.081,30.9,2.409,27.488,17.862,49.879,42.769,68.574a19.623,19.623,0,0,0,23.532,0c24.906-18.7,40.36-41.086,42.769-68.574C110.347,23.523,88.038,20.715,88.038,6.644Z" style="fill: #1c1a1a"/>
  <path d="M104.139,37.1a76.1,76.1,0,0,1-5.83,23.4c-6.44,15.15-18.02,28.9-34.96,41.61a14.615,14.615,0,0,1-17.53,0C28.879,89.4,17.3,75.652,10.859,60.5a75.534,75.534,0,0,1-5.83-23.4c-.37-4.19,2.96-7,8.42-11.24,5.32-4.12,11.85-9.2,12.61-17.6C29.139,6.822,39.249,5,54.579,5s25.45,1.82,28.53,3.26c.76,8.4,7.3,13.48,12.61,17.6C101.179,30.1,104.509,32.912,104.139,37.1Z" style="fill: #fff"/>
  <g>
    <path d="M23.109,43.431c-.357-1.246-.788-2.742-1.03-3.872l-.044.009c-.09,1.136-.231,2.355-.415,3.714q-.318,2.39-.582,4.775l-.9.227q-1.29-1.949-2.628-3.876c-.788-1.142-1.489-2.192-2.055-3.177l-.029.008c.281,1.122.626,2.639.917,4q.41,1.952.826,3.9-.561.159-1.121.321-.977-4.546-1.91-9.1.8-.228,1.6-.448,1.423,1.937,2.8,3.9a31.679,31.679,0,0,1,1.723,2.784l.041-.011a30.113,30.113,0,0,1,.234-3.279q.312-2.385.678-4.773.809-.189,1.619-.367,1.3,4.462,2.569,8.935-.581.124-1.162.256Q23.679,45.391,23.109,43.431Z"/>
    <path d="M26.678,37.37q.517,2.7,1.037,5.392c.4,2.04,1.486,2.725,2.729,2.507,1.381-.243,2.126-1.276,1.809-3.3q-.43-2.712-.86-5.423.647-.1,1.3-.2l.8,5.35c.412,2.82-.916,4.193-2.916,4.546-1.89.332-3.526-.44-4.1-3.259l-1.08-5.356Q26.033,37.494,26.678,37.37Z"/>
    <path d="M35.783,43.8a4.554,4.554,0,0,0,2.252.324c1.238-.147,1.9-.862,1.8-1.794-.09-.861-.65-1.3-2.006-1.632-1.632-.349-2.715-.987-2.893-2.284-.2-1.43.94-2.676,2.884-2.9a4.683,4.683,0,0,1,2.251.219q-.129.5-.256,1.007a4.075,4.075,0,0,0-1.927-.236c-1.354.156-1.772.977-1.691,1.6.109.862.758,1.2,2.151,1.544,1.708.418,2.606,1.1,2.734,2.455.131,1.428-.821,2.75-3.014,3.009a5.094,5.094,0,0,1-2.457-.281Q35.7,44.317,35.783,43.8Z"/>
    <path d="M43.494,35.136l.687,9.251q-.6.045-1.208.095-.385-4.623-.769-9.245Q42.848,35.185,43.494,35.136Z"/>
    <path d="M52.841,43.714a6.358,6.358,0,0,1-2.47.491,4.483,4.483,0,0,1-4.921-4.472c-.2-2.893,1.8-5.011,4.926-5.1A5.5,5.5,0,0,1,52.759,35q-.15.49-.3.98a4.82,4.82,0,0,0-2.014-.345,3.5,3.5,0,0,0-3.678,3.977,3.473,3.473,0,0,0,3.825,3.578,5.131,5.131,0,0,0,1.983-.426Q52.71,43.241,52.841,43.714Z"/>
    <path d="M57.171,42.578a4.527,4.527,0,0,0,2.172.667c1.243.046,2-.559,2.053-1.495.043-.864-.442-1.391-1.729-1.922-1.556-.6-2.526-1.393-2.5-2.7.023-1.444,1.337-2.5,3.289-2.419a4.687,4.687,0,0,1,2.189.562q-.206.477-.408.956a4.071,4.071,0,0,0-1.866-.53c-1.36-.054-1.9.693-1.915,1.324-.024.868.563,1.307,1.885,1.856,1.622.676,2.4,1.488,2.321,2.847-.09,1.431-1.233,2.591-3.437,2.51a5.082,5.082,0,0,1-2.38-.656Q57.006,43.078,57.171,42.578Z"/>
    <path d="M66.636,36.27q-1.509-.129-3.018-.224l.064-1.017q3.7.235,7.392.659L70.957,36.7q-1.512-.172-3.026-.315-.385,4.11-.77,8.222-.611-.057-1.222-.109Q66.289,40.384,66.636,36.27Z"/>
    <path d="M79.465,41.511c-.58,3.141-2.812,4.45-5.171,4.1-2.442-.358-3.955-2.432-3.645-5.225a4.438,4.438,0,0,1,5.184-4.23C78.561,36.566,79.964,38.806,79.465,41.511Zm-7.483-.987c-.24,1.969.629,3.858,2.523,4.135s3.281-1.247,3.641-3.323c.315-1.814-.381-3.9-2.514-4.218S72.228,38.505,71.982,40.524Z"/>
    <path d="M81.9,37.469a13.29,13.29,0,0,1,2.483.3,4.228,4.228,0,0,1,2.677,1.364,2.209,2.209,0,0,1,.364,1.893,2.493,2.493,0,0,1-2.333,1.895l-.009.04a2.294,2.294,0,0,1,.972,2.14,15.308,15.308,0,0,0,.132,2.647q-.614-.145-1.228-.287a12.414,12.414,0,0,1-.131-2.3c0-1.311-.4-1.9-1.507-2.171-.385-.08-.771-.16-1.156-.237l-.791,3.94q-.6-.12-1.194-.234Q81.04,41.964,81.9,37.469Zm.443,4.392q.631.126,1.263.259c1.316.277,2.305-.214,2.542-1.248.266-1.167-.531-1.887-1.867-2.181a5.47,5.47,0,0,0-1.272-.15Z"/>
    <path d="M93.465,45.163q-1.826-.523-3.662-1L88.966,47.4q2,.516,3.983,1.093l-.28.965q-2.559-.742-5.137-1.385l2.241-9q2.643.659,5.268,1.416l-.279.966q-1.983-.573-3.977-1.088-.367,1.419-.734,2.838,1.848.478,3.687,1.006Z"/>
  </g>
  <g>
    <path d="M61.325,16.888c-4.2-.787-6.612-6.423-6.612-6.423S52.3,16.1,48.1,16.888c-4.587.86-8.855-3.785-8.855-3.785L42.02,25.031H67.406L70.18,13.1S65.913,17.748,61.325,16.888Z" style="fill: #0dd0b8"/>
    <path d="M71.6,11.924c-.2.8-.838,1.326-1.421,1.179a1.338,1.338,0,0,1-.692-1.712c.2-.8.837-1.326,1.421-1.179A1.339,1.339,0,0,1,71.6,11.924Z" style="fill: #0dd0b8"/>
    <path d="M37.567,11.924c.2.8.838,1.326,1.421,1.179a1.337,1.337,0,0,0,.692-1.712c-.2-.8-.837-1.326-1.421-1.179A1.339,1.339,0,0,0,37.567,11.924Z" style="fill: #0dd0b8"/>
    <path d="M55.717,9.146a1.042,1.042,0,1,1-2.008,0,1.042,1.042,0,1,1,2.008,0Z" style="fill: #0dd0b8"/>
    <path d="M56.589,19.641a2.233,2.233,0,0,1-1.876,2.466,2.233,2.233,0,0,1-1.876-2.466,2.233,2.233,0,0,1,1.876-2.466A2.233,2.233,0,0,1,56.589,19.641Z" style="fill: #fff"/>
  </g>
  <path d="M98.309,60.5c-6.44,15.15-18.02,28.9-34.96,41.61a14.615,14.615,0,0,1-17.53,0C28.879,89.4,17.3,75.652,10.859,60.5a131.3,131.3,0,0,1,43.73-7.09A131.2,131.2,0,0,1,98.309,60.5Z" style="fill: #0dd0b8"/>
  <path d="M64.368,97.2a17.852,17.852,0,0,1-19.568,0A135.133,135.133,0,0,1,19.231,75.476c6.574,9.4,15.406,18.246,26.588,26.636a14.615,14.615,0,0,0,17.53,0c11.182-8.389,20.013-17.236,26.587-26.636A135.157,135.157,0,0,1,64.368,97.2Z" style="fill: #fff"/>
  <g>
    <path d="M58.448,93.389H50.72A15.472,15.472,0,0,1,35.265,77.934V70.207a1.717,1.717,0,0,1,3.434,0v7.727A12.034,12.034,0,0,0,50.72,89.955h7.728a12.034,12.034,0,0,0,12.02-12.021V70.207a1.718,1.718,0,0,1,3.435,0v7.727A15.472,15.472,0,0,1,58.448,93.389Z" style="fill: #1c1a1a"/>
    <g>
      <path d="M75.835,71.924H68.107a1.717,1.717,0,1,1,0-3.434h7.728a1.717,1.717,0,1,1,0,3.434Z" style="fill: #1c1a1a"/>
      <path d="M41.061,71.924H33.333a1.717,1.717,0,0,1,0-3.434h7.728a1.717,1.717,0,0,1,0,3.434Z" style="fill: #1c1a1a"/>
    </g>
    <path d="M51.149,91.672V106.6a3.435,3.435,0,1,0,6.869,0V91.672Z" style="fill: #1c1a1a"/>
    <g>
      <g>
        <path d="M50.72,88.379A10.435,10.435,0,0,1,40.276,77.934V63.767A10.439,10.439,0,0,1,50.72,53.322h7.728A10.438,10.438,0,0,1,68.892,63.767V77.934A10.434,10.434,0,0,1,58.448,88.379Z" style="fill: #1c1a1a"/>
        <path d="M58.448,54.323a9.434,9.434,0,0,1,9.445,9.444V77.934a9.437,9.437,0,0,1-9.445,9.445H50.72a9.437,9.437,0,0,1-9.445-9.445V63.767a9.434,9.434,0,0,1,9.445-9.444h7.728m0-2H50.72A11.435,11.435,0,0,0,39.275,63.767V77.934A11.438,11.438,0,0,0,50.72,89.379h7.728A11.438,11.438,0,0,0,69.893,77.934V63.767A11.435,11.435,0,0,0,58.448,52.323Z" style="fill: #1c1a1a"/>
      </g>
      <g>
        <g>
          <path d="M50.858,54.323v7.229a1.786,1.786,0,0,1-3.572,0V54.966a9.5,9.5,0,0,1,3.434-.643Z" style="fill: #0dd0b8"/>
          <path d="M56.37,54.323v7.229a1.786,1.786,0,1,1-3.572,0V54.323Z" style="fill: #0dd0b8"/>
          <path d="M61.882,54.966v6.586a1.786,1.786,0,0,1-3.572,0V54.323h.138A9.5,9.5,0,0,1,61.882,54.966Z" style="fill: #0dd0b8"/>
        </g>
        <g>
          <path d="M50.858,80.15v7.229H50.72a9.5,9.5,0,0,1-3.434-.644V80.15a1.784,1.784,0,0,1,1.786-1.786,1.787,1.787,0,0,1,1.786,1.786Z" style="fill: #0dd0b8"/>
          <path d="M56.37,80.15v7.229H52.8V80.15a1.785,1.785,0,0,1,1.786-1.786A1.787,1.787,0,0,1,56.37,80.15Z" style="fill: #0dd0b8"/>
          <path d="M61.882,80.15v6.585a9.5,9.5,0,0,1-3.434.644H58.31V80.15A1.785,1.785,0,0,1,60.1,78.364a1.787,1.787,0,0,1,1.786,1.786Z" style="fill: #0dd0b8"/>
        </g>
      </g>
      <circle cx="54.584" cy="70.851" r="2.757" style="fill: #0dd0b8"/>
    </g>
  </g>
</svg>